<?xml version="1.0" encoding="UTF-8" standalone="no"?>
<svg
   id="General"
   viewBox="0 0 24 24"
   version="1.1"
   sodipodi:docname="bell-light.svg"
   inkscape:version="1.3.2 (091e20e, 2023-11-25)"
   xmlns:inkscape="http://www.inkscape.org/namespaces/inkscape"
   xmlns:sodipodi="http://sodipodi.sourceforge.net/DTD/sodipodi-0.dtd"
   xmlns="http://www.w3.org/2000/svg"
   xmlns:svg="http://www.w3.org/2000/svg">
  <sodipodi:namedview
     id="namedview1"
     pagecolor="#ffffff"
     bordercolor="#000000"
     borderopacity="0.25"
     inkscape:showpageshadow="2"
     inkscape:pageopacity="0.0"
     inkscape:pagecheckerboard="0"
     inkscape:deskcolor="#d1d1d1"
     inkscape:zoom="9.8333333"
     inkscape:cx="11.949153"
     inkscape:cy="12"
     inkscape:window-width="1440"
     inkscape:window-height="749"
     inkscape:window-x="0"
     inkscape:window-y="25"
     inkscape:window-maximized="0"
     inkscape:current-layer="General" />
  <defs
     id="defs1">
    <style
       id="style1">.cls-1{opacity:0.3;}</style>
  </defs>
  <g
     class="cls-1"
     id="g1"
     style="fill:#e5e7eb;fill-opacity:1">
    <circle
       cx="12"
       cy="19"
       r="3"
       id="circle1"
       style="fill:#e5e7eb;fill-opacity:1" />
  </g>
  <path
     d="m 19,15 v 3 a 1,1 0 0 1 -1,1 H 6 A 1,1 0 0 1 5,18 V 15 A 2,2 0 0 0 7,13 V 10 A 5,5 0 0 1 11,5.1 V 3 a 1,1 0 0 1 2,0 v 2.1 a 5,5 0 0 1 4,4.9 v 3 a 2,2 0 0 0 2,2 z m -8,-5 a 1,1 0 0 1 1,-1 1,1 0 0 0 0,-2 3,3 0 0 0 -3,3 1,1 0 0 0 2,0 z"
     id="path1"
     style="fill:#f3f4f6;fill-opacity:1" />
</svg>
