<?xml version="1.0" encoding="UTF-8" standalone="no"?>
<svg
   viewBox="0 0 24 24"
   version="1.1"
   id="svg2"
   sodipodi:docname="sun.svg"
   inkscape:version="1.3.2 (091e20e, 2023-11-25)"
   xmlns:inkscape="http://www.inkscape.org/namespaces/inkscape"
   xmlns:sodipodi="http://sodipodi.sourceforge.net/DTD/sodipodi-0.dtd"
   xmlns="http://www.w3.org/2000/svg"
   xmlns:svg="http://www.w3.org/2000/svg">
  <sodipodi:namedview
     id="namedview2"
     pagecolor="#ffffff"
     bordercolor="#000000"
     borderopacity="0.25"
     inkscape:showpageshadow="2"
     inkscape:pageopacity="0.0"
     inkscape:pagecheckerboard="0"
     inkscape:deskcolor="#d1d1d1"
     inkscape:zoom="9.8333333"
     inkscape:cx="11.949153"
     inkscape:cy="12"
     inkscape:window-width="1440"
     inkscape:window-height="749"
     inkscape:window-x="0"
     inkscape:window-y="25"
     inkscape:window-maximized="0"
     inkscape:current-layer="svg2" />
  <defs
     id="defs1">
    <style
       id="style1">.cls-1{opacity:0.3;}</style>
  </defs>
  <path
     class="cls-1"
     d="m 13,22 h -2 a 1,1 0 0 1 -1,-1 v -3 a 1,1 0 0 1 1,-1 h 2 a 1,1 0 0 1 1,1 v 3 a 1,1 0 0 1 -1,1 z m 5.2,-11.27 2.59,-1.5 a 1,1 0 0 0 0.37,-1.36 l -1,-1.74 A 1,1 0 0 0 18.79,5.77 l -2.59,1.5 a 1,1 0 0 0 -0.37,1.36 l 1,1.74 a 1,1 0 0 0 1.37,0.36 z M 7.8,7.27 5.21,5.77 A 1,1 0 0 0 3.84,6.13 l -1,1.74 a 1,1 0 0 0 0.37,1.36 l 2.59,1.5 a 1,1 0 0 0 1.37,-0.36 l 1,-1.74 A 1,1 0 0 0 7.8,7.27 Z"
     id="path1" />
  <path
     d="M 13,7 H 11 A 1,1 0 0 1 10,6 V 3 a 1,1 0 0 1 1,-1 h 2 a 1,1 0 0 1 1,1 V 6 A 1,1 0 0 1 13,7 Z M 5.21,18.23 7.8,16.73 a 1,1 0 0 0 0.37,-1.36 l -1,-1.74 A 1,1 0 0 0 5.8,13.27 l -2.59,1.5 a 1,1 0 0 0 -0.37,1.36 l 1,1.74 a 1,1 0 0 0 1.37,0.36 z m 15.58,-3.46 -2.59,-1.5 a 1,1 0 0 0 -1.37,0.36 l -1,1.74 a 1,1 0 0 0 0.37,1.36 l 2.59,1.5 a 1,1 0 0 0 1.37,-0.36 l 1,-1.74 a 1,1 0 0 0 -0.37,-1.36 z"
     id="path2"
     style="fill:#f3f4f6;fill-opacity:1" />
</svg>
